<mxfile host="app.diagrams.net" modified="2023-10-03T10:47:44.679Z" agent="Mozilla/5.0 (Windows NT 10.0; Win64; x64) AppleWebKit/537.36 (KHTML, like Gecko) Chrome/117.0.0.0 Safari/537.36" etag="OQ_r8WnuyxPkYFbMgwWt" version="22.0.1" type="github">
  <diagram name="Page-1" id="beE_4dxmIc5Rx972VI1b">
    <mxGraphModel dx="1300" dy="723" grid="1" gridSize="10" guides="1" tooltips="1" connect="1" arrows="1" fold="1" page="1" pageScale="1" pageWidth="850" pageHeight="1100" math="0" shadow="0">
      <root>
        <mxCell id="0" />
        <mxCell id="1" parent="0" />
        <mxCell id="F5lLC6z1OZfWjeG4dIKi-2" value="After we comepleted the Phase 1,&amp;nbsp;&lt;br&gt;Now we can start Patch the remaining instances to do the Patching." style="text;html=1;align=left;verticalAlign=middle;resizable=0;points=[];autosize=1;strokeColor=none;fillColor=none;fontStyle=1" vertex="1" parent="1">
          <mxGeometry x="30" y="60" width="410" height="40" as="geometry" />
        </mxCell>
        <mxCell id="F5lLC6z1OZfWjeG4dIKi-3" value="Patching Phase 2" style="text;html=1;align=center;verticalAlign=middle;resizable=0;points=[];autosize=1;strokeColor=none;fillColor=none;fontStyle=1;fontSize=19;" vertex="1" parent="1">
          <mxGeometry x="18" y="20" width="180" height="40" as="geometry" />
        </mxCell>
        <mxCell id="F5lLC6z1OZfWjeG4dIKi-4" value="" style="ellipse;whiteSpace=wrap;html=1;aspect=fixed;fillColor=#60a917;fontColor=#ffffff;strokeColor=#2D7600;" vertex="1" parent="1">
          <mxGeometry x="30" y="720" width="30" height="30" as="geometry" />
        </mxCell>
        <mxCell id="F5lLC6z1OZfWjeG4dIKi-5" value="" style="ellipse;whiteSpace=wrap;html=1;aspect=fixed;fillColor=#e51400;fontColor=#ffffff;strokeColor=#B20000;" vertex="1" parent="1">
          <mxGeometry x="30" y="760" width="30" height="30" as="geometry" />
        </mxCell>
        <mxCell id="F5lLC6z1OZfWjeG4dIKi-6" value="Compliance" style="text;html=1;align=center;verticalAlign=middle;resizable=0;points=[];autosize=1;strokeColor=none;fillColor=none;" vertex="1" parent="1">
          <mxGeometry x="60" y="720" width="90" height="30" as="geometry" />
        </mxCell>
        <mxCell id="F5lLC6z1OZfWjeG4dIKi-7" value="Not compliance" style="text;html=1;align=center;verticalAlign=middle;resizable=0;points=[];autosize=1;strokeColor=none;fillColor=none;" vertex="1" parent="1">
          <mxGeometry x="60" y="760" width="110" height="30" as="geometry" />
        </mxCell>
        <mxCell id="F5lLC6z1OZfWjeG4dIKi-8" value="" style="rounded=0;whiteSpace=wrap;html=1;" vertex="1" parent="1">
          <mxGeometry x="100" y="157" width="390" height="280" as="geometry" />
        </mxCell>
        <mxCell id="F5lLC6z1OZfWjeG4dIKi-9" value="" style="endArrow=none;dashed=1;html=1;rounded=0;shadow=0;" edge="1" parent="1">
          <mxGeometry width="50" height="50" relative="1" as="geometry">
            <mxPoint x="367" y="390" as="sourcePoint" />
            <mxPoint x="367" y="180" as="targetPoint" />
          </mxGeometry>
        </mxCell>
        <mxCell id="F5lLC6z1OZfWjeG4dIKi-10" value="Web" style="text;html=1;align=center;verticalAlign=middle;resizable=0;points=[];autosize=1;strokeColor=none;fillColor=none;shadow=0;" vertex="1" parent="1">
          <mxGeometry x="132" y="158" width="50" height="30" as="geometry" />
        </mxCell>
        <mxCell id="F5lLC6z1OZfWjeG4dIKi-11" value="Application" style="text;html=1;align=center;verticalAlign=middle;resizable=0;points=[];autosize=1;strokeColor=none;fillColor=none;shadow=0;" vertex="1" parent="1">
          <mxGeometry x="252" y="158" width="80" height="30" as="geometry" />
        </mxCell>
        <mxCell id="F5lLC6z1OZfWjeG4dIKi-12" value="Search" style="text;html=1;align=center;verticalAlign=middle;resizable=0;points=[];autosize=1;strokeColor=none;fillColor=none;shadow=0;" vertex="1" parent="1">
          <mxGeometry x="402" y="158" width="60" height="30" as="geometry" />
        </mxCell>
        <mxCell id="F5lLC6z1OZfWjeG4dIKi-13" value="&lt;font color=&quot;#000000&quot;&gt;BNM-Search-Instance-2&lt;br&gt;10.25.5.73&lt;/font&gt;" style="outlineConnect=0;dashed=0;verticalLabelPosition=bottom;verticalAlign=top;align=center;html=1;shape=mxgraph.aws3.ec2;fillColor=#60a917;shadow=0;fontSize=10;fontColor=#ffffff;strokeColor=#2D7600;" vertex="1" parent="1">
          <mxGeometry x="397" y="231" width="70" height="83" as="geometry" />
        </mxCell>
        <mxCell id="F5lLC6z1OZfWjeG4dIKi-14" value="Liferay cluster" style="text;html=1;align=center;verticalAlign=middle;resizable=0;points=[];autosize=1;strokeColor=none;fillColor=none;fontStyle=4" vertex="1" parent="1">
          <mxGeometry x="242" y="120" width="100" height="30" as="geometry" />
        </mxCell>
        <mxCell id="F5lLC6z1OZfWjeG4dIKi-15" value="" style="rounded=1;whiteSpace=wrap;html=1;" vertex="1" parent="1">
          <mxGeometry x="10" y="183" width="348" height="122" as="geometry" />
        </mxCell>
        <mxCell id="F5lLC6z1OZfWjeG4dIKi-16" value="BNM-Web-Instance-1&lt;br&gt;10.25.4.28" style="outlineConnect=0;dashed=0;verticalLabelPosition=bottom;verticalAlign=top;align=center;html=1;shape=mxgraph.aws3.ec2;fillColor=#60a917;shadow=0;fontSize=10;fontColor=#000000;strokeColor=#2D7600;labelBorderColor=none;" vertex="1" parent="1">
          <mxGeometry x="117" y="191" width="70" height="83" as="geometry" />
        </mxCell>
        <mxCell id="F5lLC6z1OZfWjeG4dIKi-17" value="BNM-App-Instance-3&lt;br&gt;10.25.4.108" style="outlineConnect=0;dashed=0;verticalLabelPosition=bottom;verticalAlign=top;align=center;html=1;shape=mxgraph.aws3.ec2;fillColor=#60a917;shadow=0;fontSize=10;fontColor=#000000;strokeColor=#2D7600;labelBorderColor=none;" vertex="1" parent="1">
          <mxGeometry x="257" y="191" width="70" height="83" as="geometry" />
        </mxCell>
        <mxCell id="F5lLC6z1OZfWjeG4dIKi-18" value="" style="rounded=1;whiteSpace=wrap;html=1;labelBorderColor=none;" vertex="1" parent="1">
          <mxGeometry x="10" y="308" width="348" height="382" as="geometry" />
        </mxCell>
        <mxCell id="F5lLC6z1OZfWjeG4dIKi-19" value="BNM-App-Instance-4&lt;br&gt;10.25.5.77" style="outlineConnect=0;dashed=0;verticalLabelPosition=bottom;verticalAlign=top;align=center;html=1;shape=mxgraph.aws3.ec2;fillColor=#e51400;shadow=0;fontSize=10;fontColor=#000000;strokeColor=#B20000;labelBorderColor=none;" vertex="1" parent="1">
          <mxGeometry x="257" y="314" width="70" height="83" as="geometry" />
        </mxCell>
        <mxCell id="F5lLC6z1OZfWjeG4dIKi-20" value="BNM-Web-Instance-2&lt;br&gt;10.25.5.19" style="outlineConnect=0;dashed=0;verticalLabelPosition=bottom;verticalAlign=top;align=center;html=1;shape=mxgraph.aws3.ec2;fillColor=#e51400;shadow=0;fontSize=10;fontColor=#000000;strokeColor=#B20000;labelBorderColor=none;" vertex="1" parent="1">
          <mxGeometry x="117" y="314" width="70" height="83" as="geometry" />
        </mxCell>
        <mxCell id="F5lLC6z1OZfWjeG4dIKi-21" value="Tag: Phase 1" style="text;html=1;strokeColor=none;fillColor=none;align=center;verticalAlign=middle;whiteSpace=wrap;rounded=0;" vertex="1" parent="1">
          <mxGeometry x="20" y="229" width="60" height="30" as="geometry" />
        </mxCell>
        <mxCell id="F5lLC6z1OZfWjeG4dIKi-22" value="Tag: Phase 2" style="text;html=1;strokeColor=none;fillColor=none;align=center;verticalAlign=middle;whiteSpace=wrap;rounded=0;" vertex="1" parent="1">
          <mxGeometry x="20" y="354" width="60" height="30" as="geometry" />
        </mxCell>
        <mxCell id="F5lLC6z1OZfWjeG4dIKi-23" value="BNM-App-Instance-1-UAT&lt;br&gt;10.25.4.79 (offline)" style="outlineConnect=0;dashed=0;verticalLabelPosition=bottom;verticalAlign=top;align=center;html=1;shape=mxgraph.aws3.ec2;fillColor=#e51400;shadow=0;fontSize=10;fontColor=#000000;strokeColor=#B20000;labelBorderColor=none;" vertex="1" parent="1">
          <mxGeometry x="257" y="440.5" width="70" height="83" as="geometry" />
        </mxCell>
        <mxCell id="F5lLC6z1OZfWjeG4dIKi-24" value="BNM-Web-Instance-UAT&lt;br&gt;10.25.4.53 (offline)" style="outlineConnect=0;dashed=0;verticalLabelPosition=bottom;verticalAlign=top;align=center;html=1;shape=mxgraph.aws3.ec2;fillColor=#e51400;shadow=0;fontSize=10;fontColor=#000000;strokeColor=#B20000;labelBorderColor=none;" vertex="1" parent="1">
          <mxGeometry x="122" y="440.5" width="70" height="83" as="geometry" />
        </mxCell>
        <mxCell id="F5lLC6z1OZfWjeG4dIKi-25" value="BNM-App-Instance-2&lt;br&gt;10.25.5.84 (offline)" style="outlineConnect=0;dashed=0;verticalLabelPosition=bottom;verticalAlign=top;align=center;html=1;shape=mxgraph.aws3.ec2;fillColor=#e51400;shadow=0;fontSize=10;fontColor=#000000;strokeColor=#B20000;labelBorderColor=none;" vertex="1" parent="1">
          <mxGeometry x="260" y="566" width="70" height="83" as="geometry" />
        </mxCell>
        <mxCell id="F5lLC6z1OZfWjeG4dIKi-26" value="" style="endArrow=none;dashed=1;html=1;rounded=0;shadow=0;" edge="1" parent="1">
          <mxGeometry width="50" height="50" relative="1" as="geometry">
            <mxPoint x="217" y="390" as="sourcePoint" />
            <mxPoint x="217" y="180" as="targetPoint" />
          </mxGeometry>
        </mxCell>
        <mxCell id="F5lLC6z1OZfWjeG4dIKi-27" value="" style="shape=flexArrow;endArrow=classic;html=1;rounded=0;" edge="1" parent="1">
          <mxGeometry width="50" height="50" relative="1" as="geometry">
            <mxPoint x="510" y="352.57" as="sourcePoint" />
            <mxPoint x="580" y="353" as="targetPoint" />
          </mxGeometry>
        </mxCell>
        <mxCell id="F5lLC6z1OZfWjeG4dIKi-28" value="Follow the plan,&amp;nbsp;&lt;br&gt;we will unregister the Phase 2 group&amp;nbsp;&lt;br&gt;instance out of the Liferay cluster to perform&amp;nbsp;&lt;br&gt;the patching" style="text;html=1;align=left;verticalAlign=middle;resizable=0;points=[];autosize=1;strokeColor=none;fillColor=none;" vertex="1" parent="1">
          <mxGeometry x="510" y="370.5" width="260" height="70" as="geometry" />
        </mxCell>
        <mxCell id="F5lLC6z1OZfWjeG4dIKi-48" value="" style="shape=flexArrow;endArrow=classic;html=1;rounded=0;" edge="1" parent="1">
          <mxGeometry width="50" height="50" relative="1" as="geometry">
            <mxPoint x="1130" y="774.29" as="sourcePoint" />
            <mxPoint x="1200" y="774.72" as="targetPoint" />
          </mxGeometry>
        </mxCell>
        <mxCell id="F5lLC6z1OZfWjeG4dIKi-49" value="1) Take snapshots&lt;br&gt;2) Install available Patches &lt;br&gt;base on the Patch baseline parameters&lt;br&gt;3) Scan &amp;amp; Install &quot;Critical &amp;amp; Important&quot; Patches&lt;br&gt;4) CSI do the neccessary checking&amp;nbsp;" style="text;html=1;align=left;verticalAlign=middle;resizable=0;points=[];autosize=1;strokeColor=none;fillColor=none;" vertex="1" parent="1">
          <mxGeometry x="1240" y="738" width="270" height="90" as="geometry" />
        </mxCell>
        <mxCell id="F5lLC6z1OZfWjeG4dIKi-54" value="" style="shape=flexArrow;endArrow=classic;html=1;rounded=0;" edge="1" parent="1">
          <mxGeometry width="50" height="50" relative="1" as="geometry">
            <mxPoint x="1492" y="772" as="sourcePoint" />
            <mxPoint x="1542" y="722" as="targetPoint" />
          </mxGeometry>
        </mxCell>
        <mxCell id="F5lLC6z1OZfWjeG4dIKi-55" value="Unregister from the Lifereay cluster" style="text;html=1;align=center;verticalAlign=middle;resizable=0;points=[];autosize=1;strokeColor=none;fillColor=none;" vertex="1" parent="1">
          <mxGeometry x="930" y="850" width="210" height="30" as="geometry" />
        </mxCell>
        <mxCell id="F5lLC6z1OZfWjeG4dIKi-56" value="" style="shape=flexArrow;endArrow=classic;html=1;rounded=0;" edge="1" parent="1">
          <mxGeometry width="50" height="50" relative="1" as="geometry">
            <mxPoint x="1385" y="259" as="sourcePoint" />
            <mxPoint x="1275" y="206" as="targetPoint" />
          </mxGeometry>
        </mxCell>
        <mxCell id="F5lLC6z1OZfWjeG4dIKi-57" value="Once all completed, add back the met compliance node back to&lt;br&gt;liferay cluster" style="text;html=1;align=center;verticalAlign=middle;resizable=0;points=[];autosize=1;strokeColor=none;fillColor=none;" vertex="1" parent="1">
          <mxGeometry x="1310" y="276.75" width="360" height="40" as="geometry" />
        </mxCell>
        <mxCell id="F5lLC6z1OZfWjeG4dIKi-59" value="" style="rounded=0;whiteSpace=wrap;html=1;" vertex="1" parent="1">
          <mxGeometry x="860" y="167" width="390" height="280" as="geometry" />
        </mxCell>
        <mxCell id="F5lLC6z1OZfWjeG4dIKi-60" value="" style="endArrow=none;dashed=1;html=1;rounded=0;shadow=0;" edge="1" parent="1">
          <mxGeometry width="50" height="50" relative="1" as="geometry">
            <mxPoint x="1127" y="400" as="sourcePoint" />
            <mxPoint x="1127" y="190" as="targetPoint" />
          </mxGeometry>
        </mxCell>
        <mxCell id="F5lLC6z1OZfWjeG4dIKi-61" value="Web" style="text;html=1;align=center;verticalAlign=middle;resizable=0;points=[];autosize=1;strokeColor=none;fillColor=none;shadow=0;" vertex="1" parent="1">
          <mxGeometry x="892" y="168" width="50" height="30" as="geometry" />
        </mxCell>
        <mxCell id="F5lLC6z1OZfWjeG4dIKi-62" value="Application" style="text;html=1;align=center;verticalAlign=middle;resizable=0;points=[];autosize=1;strokeColor=none;fillColor=none;shadow=0;" vertex="1" parent="1">
          <mxGeometry x="1012" y="168" width="80" height="30" as="geometry" />
        </mxCell>
        <mxCell id="F5lLC6z1OZfWjeG4dIKi-63" value="Search" style="text;html=1;align=center;verticalAlign=middle;resizable=0;points=[];autosize=1;strokeColor=none;fillColor=none;shadow=0;" vertex="1" parent="1">
          <mxGeometry x="1162" y="168" width="60" height="30" as="geometry" />
        </mxCell>
        <mxCell id="F5lLC6z1OZfWjeG4dIKi-64" value="&lt;font color=&quot;#000000&quot;&gt;BNM-Search-Instance-2&lt;br&gt;10.25.5.73&lt;/font&gt;" style="outlineConnect=0;dashed=0;verticalLabelPosition=bottom;verticalAlign=top;align=center;html=1;shape=mxgraph.aws3.ec2;fillColor=#60a917;shadow=0;fontSize=10;fontColor=#ffffff;strokeColor=#2D7600;" vertex="1" parent="1">
          <mxGeometry x="1157" y="241" width="70" height="83" as="geometry" />
        </mxCell>
        <mxCell id="F5lLC6z1OZfWjeG4dIKi-65" value="Liferay cluster" style="text;html=1;align=center;verticalAlign=middle;resizable=0;points=[];autosize=1;strokeColor=none;fillColor=none;fontStyle=4" vertex="1" parent="1">
          <mxGeometry x="1002" y="130" width="100" height="30" as="geometry" />
        </mxCell>
        <mxCell id="F5lLC6z1OZfWjeG4dIKi-66" value="" style="rounded=1;whiteSpace=wrap;html=1;" vertex="1" parent="1">
          <mxGeometry x="770" y="193" width="348" height="122" as="geometry" />
        </mxCell>
        <mxCell id="F5lLC6z1OZfWjeG4dIKi-67" value="BNM-Web-Instance-1&lt;br&gt;10.25.4.28" style="outlineConnect=0;dashed=0;verticalLabelPosition=bottom;verticalAlign=top;align=center;html=1;shape=mxgraph.aws3.ec2;fillColor=#60a917;shadow=0;fontSize=10;fontColor=#000000;strokeColor=#2D7600;labelBorderColor=none;" vertex="1" parent="1">
          <mxGeometry x="877" y="201" width="70" height="83" as="geometry" />
        </mxCell>
        <mxCell id="F5lLC6z1OZfWjeG4dIKi-68" value="BNM-App-Instance-3&lt;br&gt;10.25.4.108" style="outlineConnect=0;dashed=0;verticalLabelPosition=bottom;verticalAlign=top;align=center;html=1;shape=mxgraph.aws3.ec2;fillColor=#60a917;shadow=0;fontSize=10;fontColor=#000000;strokeColor=#2D7600;labelBorderColor=none;" vertex="1" parent="1">
          <mxGeometry x="1017" y="201" width="70" height="83" as="geometry" />
        </mxCell>
        <mxCell id="F5lLC6z1OZfWjeG4dIKi-69" value="" style="rounded=1;whiteSpace=wrap;html=1;labelBorderColor=none;" vertex="1" parent="1">
          <mxGeometry x="860" y="458" width="348" height="382" as="geometry" />
        </mxCell>
        <mxCell id="F5lLC6z1OZfWjeG4dIKi-70" value="BNM-App-Instance-4&lt;br&gt;10.25.5.77" style="outlineConnect=0;dashed=0;verticalLabelPosition=bottom;verticalAlign=top;align=center;html=1;shape=mxgraph.aws3.ec2;fillColor=#e51400;shadow=0;fontSize=10;fontColor=#000000;strokeColor=#B20000;labelBorderColor=none;" vertex="1" parent="1">
          <mxGeometry x="1107" y="464" width="70" height="83" as="geometry" />
        </mxCell>
        <mxCell id="F5lLC6z1OZfWjeG4dIKi-71" value="BNM-Web-Instance-2&lt;br&gt;10.25.5.19" style="outlineConnect=0;dashed=0;verticalLabelPosition=bottom;verticalAlign=top;align=center;html=1;shape=mxgraph.aws3.ec2;fillColor=#e51400;shadow=0;fontSize=10;fontColor=#000000;strokeColor=#B20000;labelBorderColor=none;" vertex="1" parent="1">
          <mxGeometry x="967" y="464" width="70" height="83" as="geometry" />
        </mxCell>
        <mxCell id="F5lLC6z1OZfWjeG4dIKi-72" value="Tag: Phase 1" style="text;html=1;strokeColor=none;fillColor=none;align=center;verticalAlign=middle;whiteSpace=wrap;rounded=0;" vertex="1" parent="1">
          <mxGeometry x="780" y="239" width="60" height="30" as="geometry" />
        </mxCell>
        <mxCell id="F5lLC6z1OZfWjeG4dIKi-73" value="Tag: Phase 2" style="text;html=1;strokeColor=none;fillColor=none;align=center;verticalAlign=middle;whiteSpace=wrap;rounded=0;" vertex="1" parent="1">
          <mxGeometry x="870" y="504" width="60" height="30" as="geometry" />
        </mxCell>
        <mxCell id="F5lLC6z1OZfWjeG4dIKi-74" value="BNM-App-Instance-1-UAT&lt;br&gt;10.25.4.79 (offline)" style="outlineConnect=0;dashed=0;verticalLabelPosition=bottom;verticalAlign=top;align=center;html=1;shape=mxgraph.aws3.ec2;fillColor=#e51400;shadow=0;fontSize=10;fontColor=#000000;strokeColor=#B20000;labelBorderColor=none;" vertex="1" parent="1">
          <mxGeometry x="1107" y="590.5" width="70" height="83" as="geometry" />
        </mxCell>
        <mxCell id="F5lLC6z1OZfWjeG4dIKi-75" value="BNM-Web-Instance-UAT&lt;br&gt;10.25.4.53 (offline)" style="outlineConnect=0;dashed=0;verticalLabelPosition=bottom;verticalAlign=top;align=center;html=1;shape=mxgraph.aws3.ec2;fillColor=#e51400;shadow=0;fontSize=10;fontColor=#000000;strokeColor=#B20000;labelBorderColor=none;" vertex="1" parent="1">
          <mxGeometry x="972" y="590.5" width="70" height="83" as="geometry" />
        </mxCell>
        <mxCell id="F5lLC6z1OZfWjeG4dIKi-76" value="BNM-App-Instance-2&lt;br&gt;10.25.5.84 (offline)" style="outlineConnect=0;dashed=0;verticalLabelPosition=bottom;verticalAlign=top;align=center;html=1;shape=mxgraph.aws3.ec2;fillColor=#e51400;shadow=0;fontSize=10;fontColor=#000000;strokeColor=#B20000;labelBorderColor=none;" vertex="1" parent="1">
          <mxGeometry x="1110" y="716" width="70" height="83" as="geometry" />
        </mxCell>
        <mxCell id="F5lLC6z1OZfWjeG4dIKi-77" value="" style="endArrow=none;dashed=1;html=1;rounded=0;shadow=0;" edge="1" parent="1">
          <mxGeometry width="50" height="50" relative="1" as="geometry">
            <mxPoint x="977" y="400" as="sourcePoint" />
            <mxPoint x="977" y="190" as="targetPoint" />
          </mxGeometry>
        </mxCell>
        <mxCell id="F5lLC6z1OZfWjeG4dIKi-86" value="" style="shape=flexArrow;endArrow=classic;html=1;rounded=0;" edge="1" parent="1">
          <mxGeometry width="50" height="50" relative="1" as="geometry">
            <mxPoint x="1600" y="640.29" as="sourcePoint" />
            <mxPoint x="1670" y="640.72" as="targetPoint" />
          </mxGeometry>
        </mxCell>
        <mxCell id="F5lLC6z1OZfWjeG4dIKi-87" value="" style="rounded=1;whiteSpace=wrap;html=1;labelBorderColor=none;" vertex="1" parent="1">
          <mxGeometry x="1330" y="324" width="348" height="382" as="geometry" />
        </mxCell>
        <mxCell id="F5lLC6z1OZfWjeG4dIKi-88" value="BNM-App-Instance-4&lt;br&gt;10.25.5.77" style="outlineConnect=0;dashed=0;verticalLabelPosition=bottom;verticalAlign=top;align=center;html=1;shape=mxgraph.aws3.ec2;fillColor=#60a917;shadow=0;fontSize=10;fontColor=#000000;strokeColor=#2D7600;labelBorderColor=none;" vertex="1" parent="1">
          <mxGeometry x="1577" y="330" width="70" height="83" as="geometry" />
        </mxCell>
        <mxCell id="F5lLC6z1OZfWjeG4dIKi-89" value="BNM-Web-Instance-2&lt;br&gt;10.25.5.19" style="outlineConnect=0;dashed=0;verticalLabelPosition=bottom;verticalAlign=top;align=center;html=1;shape=mxgraph.aws3.ec2;fillColor=#60a917;shadow=0;fontSize=10;fontColor=#000000;strokeColor=#2D7600;labelBorderColor=none;" vertex="1" parent="1">
          <mxGeometry x="1437" y="330" width="70" height="83" as="geometry" />
        </mxCell>
        <mxCell id="F5lLC6z1OZfWjeG4dIKi-90" value="Tag: Phase 2" style="text;html=1;strokeColor=none;fillColor=none;align=center;verticalAlign=middle;whiteSpace=wrap;rounded=0;" vertex="1" parent="1">
          <mxGeometry x="1340" y="370" width="60" height="30" as="geometry" />
        </mxCell>
        <mxCell id="F5lLC6z1OZfWjeG4dIKi-91" value="BNM-App-Instance-1-UAT&lt;br&gt;10.25.4.79 (offline)" style="outlineConnect=0;dashed=0;verticalLabelPosition=bottom;verticalAlign=top;align=center;html=1;shape=mxgraph.aws3.ec2;fillColor=#60a917;shadow=0;fontSize=10;fontColor=#000000;strokeColor=#2D7600;labelBorderColor=none;" vertex="1" parent="1">
          <mxGeometry x="1577" y="456.5" width="70" height="83" as="geometry" />
        </mxCell>
        <mxCell id="F5lLC6z1OZfWjeG4dIKi-92" value="BNM-Web-Instance-UAT&lt;br&gt;10.25.4.53 (offline)" style="outlineConnect=0;dashed=0;verticalLabelPosition=bottom;verticalAlign=top;align=center;html=1;shape=mxgraph.aws3.ec2;fillColor=#60a917;shadow=0;fontSize=10;fontColor=#000000;strokeColor=#2D7600;labelBorderColor=none;" vertex="1" parent="1">
          <mxGeometry x="1442" y="456.5" width="70" height="83" as="geometry" />
        </mxCell>
        <mxCell id="F5lLC6z1OZfWjeG4dIKi-93" value="BNM-App-Instance-2&lt;br&gt;10.25.5.84 (offline)" style="outlineConnect=0;dashed=0;verticalLabelPosition=bottom;verticalAlign=top;align=center;html=1;shape=mxgraph.aws3.ec2;fillColor=#60a917;shadow=0;fontSize=10;fontColor=#000000;strokeColor=#2D7600;labelBorderColor=none;" vertex="1" parent="1">
          <mxGeometry x="1580" y="582" width="70" height="83" as="geometry" />
        </mxCell>
      </root>
    </mxGraphModel>
  </diagram>
</mxfile>
